<svg id="Travel_Rations_1_day_" data-name="Travel Rations (1 day)" xmlns="http://www.w3.org/2000/svg" viewBox="0 0 50 50"><defs><style>.cls-1{fill:#fff;stroke:#000;stroke-linejoin:round;}</style></defs><path class="cls-1" d="M44.38,13.1a2.95,2.95,0,0,0-2.46-5,3,3,0,1,0-5.28,1.41L28.18,18l3.87,3.87,8.46-8.46A3,3,0,0,0,44.38,13.1Z"/><path class="cls-1" d="M22.54,46.72a16.91,16.91,0,0,0,2.81-2.25,15.21,15.21,0,0,0,3.53-16.78,21.35,21.35,0,0,1,5.36-7H31.83l-.06-2.56H29.3V15.76a21.35,21.35,0,0,1-7,5.36A15.21,15.21,0,0,0,5.53,24.65a16.91,16.91,0,0,0-2.25,2.81"/><ellipse class="cls-1" cx="12.91" cy="37.09" rx="1.79" ry="13.62" transform="translate(-22.45 19.99) rotate(-45)"/><ellipse cx="12.91" cy="37.09" rx="0.41" ry="3.14" transform="translate(-22.45 19.99) rotate(-45)"/></svg>